<svg width="15" height="24" viewBox="0 0 15 24" fill="none" xmlns="http://www.w3.org/2000/svg">
    <path fill-rule="evenodd" clip-rule="evenodd" d="M6.93133 4.42374C6.83021 4.41002 6.72829 4.40305 6.62624 4.40289C6.06303 4.40603 5.52179 4.62176 5.11084 5.00691C4.6999 5.39206 4.44957 5.91821 4.40998 6.48003C4.37039 7.04186 4.54445 7.59791 4.89732 8.03688C5.25018 8.47586 5.75582 8.76537 6.31302 8.84747C6.41409 8.86171 6.51604 8.86868 6.61811 8.86832C6.8763 8.86868 7.13255 8.82376 7.37523 8.73561C7.66244 8.63119 7.92521 8.46903 8.14734 8.25915C8.36946 8.04927 8.54624 7.7961 8.66675 7.51526C8.74565 7.33332 8.80051 7.14188 8.82997 6.94577C8.91114 6.36016 8.75722 5.76623 8.40184 5.29375C8.04646 4.82128 7.51851 4.50867 6.93336 4.42424L6.93133 4.42374ZM2.68505 9.96001C1.93213 9.07049 1.50538 7.95061 1.47539 6.7856V6.50492C1.50788 5.16051 2.06447 3.88203 3.02639 2.94224C3.98831 2.00246 5.27941 1.47578 6.62421 1.47458V0C5.36666 0.00292943 4.1358 0.362926 3.07487 1.0381C2.01394 1.71327 1.16657 2.67584 0.631354 3.81381C0.0961429 4.95178 -0.10489 6.21835 0.0516416 7.46612C0.208174 8.71389 0.715838 9.89155 1.51556 10.862C1.8784 10.5255 2.27353 10.2256 2.69522 9.96663L2.68505 9.96001ZM14.1922 17.0698C14.1932 17.1119 14.1896 17.154 14.1816 17.1954C14.1762 17.2185 14.1762 17.2425 14.1816 17.2656L14.1597 17.4552C14.1444 17.5625 14.1282 17.6688 14.1088 17.773V17.8045L14.0997 17.8462C14.0981 17.8549 14.0966 17.8635 14.0951 17.8722C14.0932 17.883 14.0913 17.8938 14.0894 17.9048C14.0844 17.9338 14.0793 17.9637 14.0732 17.9957L14.0417 18.1361L14.0285 18.1986C14.0178 18.2434 14.0077 18.2866 13.9954 18.3303C13.9967 18.3411 13.9942 18.3521 13.9883 18.3613C13.9814 18.3792 13.9763 18.3978 13.9731 18.4167C13.9726 18.4247 13.9726 18.4327 13.9731 18.4406C13.9677 18.462 13.9617 18.4829 13.9558 18.5037L13.9558 18.5037C13.9505 18.522 13.9453 18.5403 13.9405 18.5586C13.9304 18.5978 13.9227 18.6227 13.9121 18.6542C13.9065 18.6705 13.9011 18.6888 13.8956 18.7076L13.8955 18.7077C13.8904 18.725 13.8851 18.7429 13.8795 18.76V18.7793C13.8755 18.7916 13.8718 18.8038 13.868 18.816C13.8603 18.8411 13.8527 18.8658 13.8434 18.8901C13.8358 18.9102 13.8325 18.9209 13.8299 18.9297C13.8277 18.9367 13.8259 18.9426 13.8226 18.9511C13.8191 18.9599 13.8151 18.9719 13.8108 18.9847C13.8057 19.0001 13.8001 19.0166 13.7946 19.0305C13.7881 19.0467 13.7824 19.063 13.7765 19.0799L13.7765 19.0799L13.7661 19.1093L13.7214 19.2273C13.7224 19.2328 13.7224 19.2385 13.7214 19.244C13.7121 19.2695 13.7024 19.2944 13.6926 19.3194C13.6852 19.3384 13.6778 19.3574 13.6705 19.3767L13.6375 19.4571C13.6019 19.544 13.5632 19.6274 13.5216 19.7113L13.4676 19.8247C13.4676 19.8302 13.4629 19.837 13.4581 19.8439C13.4563 19.8465 13.4545 19.8491 13.4529 19.8517C13.4366 19.8873 13.4183 19.9218 13.399 19.9574C13.3558 20.0423 13.3095 20.1262 13.2638 20.2081C13.2383 20.2549 13.2129 20.2981 13.1844 20.3428L13.131 20.4323L13.0731 20.5264L13.0314 20.5905L13.011 20.6219C12.9981 20.642 12.985 20.6622 12.9714 20.6815C12.9613 20.6958 12.9544 20.7064 12.9481 20.7161C12.9439 20.7226 12.9399 20.7287 12.9354 20.7353C12.9327 20.7391 12.9299 20.7432 12.9266 20.7476C12.9099 20.7705 12.8793 20.8147 12.857 20.8493C12.708 21.0496 12.559 21.2434 12.4024 21.4284L12.3129 21.5301L12.2387 21.6125C12.2199 21.6336 12.2002 21.6542 12.1807 21.6748L12.1807 21.6748C12.1659 21.6903 12.1512 21.7058 12.137 21.7213L12.0327 21.8296L11.9926 21.8688C11.9478 21.9166 11.9005 21.9613 11.8527 22.0045L11.8365 22.0178L11.7114 22.1332L11.6666 22.1734L11.6056 22.2267L11.5441 22.2776L11.4607 22.3462C11.3534 22.4362 11.2436 22.5212 11.1317 22.6005C11.1195 22.6102 11.1066 22.619 11.0931 22.6269L11.0315 22.6717C11.0186 22.6799 11.0062 22.6889 10.9944 22.6986L10.9604 22.721L10.9258 22.7449L10.881 22.7749H10.8709L10.7615 22.8466L10.7361 22.8628L10.7229 22.872C10.7124 22.8797 10.7013 22.8867 10.6898 22.8929H10.6812L10.6141 22.9345L10.5485 22.9737H10.5368L10.5038 22.993L10.4529 23.0245C10.435 23.0365 10.4161 23.0468 10.3965 23.0556C10.3546 23.0815 10.31 23.1054 10.2666 23.1286L10.2388 23.1435L10.191 23.169L10.0421 23.2422L9.96171 23.2813L9.93476 23.2945L9.80205 23.3571L9.7812 23.3662L9.70087 23.4023L9.62612 23.4334L9.55493 23.4634L9.52036 23.4766L9.45477 23.5035L9.28188 23.5691L9.10645 23.6306C9.08833 23.6379 9.0702 23.6439 9.05153 23.65L9.02866 23.6576L8.85019 23.7125C8.76832 23.7379 8.6834 23.7634 8.59951 23.7827C8.57722 23.7903 8.55446 23.7964 8.53137 23.801L8.44951 23.8218L8.36714 23.8412C8.2751 23.862 8.18408 23.8813 8.09001 23.8976L8.00662 23.9144L7.92324 23.9276H7.90849L7.83222 23.9413H7.8012C7.70408 23.9561 7.609 23.9678 7.50324 23.9784L7.42442 23.9876H7.30036C7.26276 23.9876 7.22569 23.9911 7.18853 23.9946C7.16236 23.9971 7.13615 23.9996 7.10968 24.0008H6.67187V22.5771H7.16205C7.20723 22.5793 7.25249 22.5747 7.29628 22.5634H7.3095L7.44069 22.5501H7.47781L7.56731 22.5364L7.70002 22.5171L7.82815 22.4932L7.88307 22.483C7.92171 22.4754 7.96036 22.4678 7.99951 22.4576C8.12154 22.4322 8.24205 22.4022 8.36002 22.3676C8.47798 22.333 8.55374 22.3096 8.64883 22.2781L8.72663 22.2496C8.74771 22.2438 8.76832 22.2362 8.78862 22.2288L8.78865 22.2288L8.79649 22.226C8.8034 22.2234 8.81028 22.221 8.81714 22.2186L8.93205 22.1739C8.95869 22.1639 8.98478 22.153 9.01098 22.1421L9.01114 22.142C9.0289 22.1346 9.04671 22.1271 9.06476 22.12C9.06756 22.119 9.07062 22.119 9.07341 22.12C9.09131 22.1116 9.1092 22.1038 9.1271 22.0959C9.15395 22.0842 9.18079 22.0724 9.20764 22.059C9.23692 22.0443 9.26686 22.0308 9.2966 22.0173C9.3123 22.0102 9.32794 22.0031 9.34341 21.9959C9.38815 21.9751 9.42985 21.9542 9.47256 21.9318H9.48476L9.60832 21.8662L9.73798 21.793C9.76471 21.7782 9.79086 21.7623 9.81715 21.7463C9.83336 21.7364 9.84963 21.7264 9.86612 21.7167C10.0352 21.615 10.1989 21.5043 10.3563 21.3852L10.4519 21.312L10.4875 21.2851L10.5693 21.2179L10.6009 21.193L10.6929 21.1137C10.699 21.1096 10.7045 21.1046 10.7092 21.0989L10.7885 21.0288C10.9004 20.9301 11.0061 20.8254 11.1088 20.7181C11.1444 20.6835 11.1775 20.6479 11.2105 20.6118C11.3885 20.4176 11.5538 20.2121 11.7053 19.9966L11.7765 19.8949C11.8884 19.7307 11.9919 19.561 12.0866 19.3864C12.1334 19.3 12.1782 19.212 12.2209 19.1225L12.2243 19.1153C12.2455 19.0716 12.2661 19.0291 12.2834 18.9852C12.3251 18.8952 12.3638 18.8027 12.4009 18.7101L12.4104 18.6863C12.422 18.6575 12.4334 18.6293 12.4426 18.6013C12.4482 18.5841 12.4544 18.5674 12.4605 18.5507L12.4606 18.5507C12.4671 18.5329 12.4737 18.5152 12.4797 18.4966C12.485 18.4802 12.4904 18.4649 12.4957 18.4499C12.5021 18.4317 12.5084 18.4138 12.5143 18.3949C12.5184 18.3816 12.5233 18.3673 12.5284 18.3525C12.5365 18.3288 12.5451 18.3038 12.5514 18.28C12.6093 18.0918 12.6587 17.9006 12.7004 17.7049C12.7258 17.5869 12.7466 17.4674 12.7644 17.3489L12.7868 17.1847V17.1339C12.8 17.0133 12.8107 16.8908 12.8168 16.7683C12.8168 16.7162 12.8186 16.6639 12.8203 16.6113L12.8203 16.6112C12.8221 16.558 12.8239 16.5044 12.8239 16.4505V16.1398C12.8249 16.1348 12.8249 16.1296 12.8239 16.1245C12.8218 16.0278 12.8143 15.9312 12.8015 15.8352C12.8026 15.8252 12.8026 15.8152 12.8015 15.8052C12.7989 15.7496 12.7924 15.6942 12.7822 15.6394L12.769 15.5469V15.5093C12.7659 15.4703 12.7595 15.4317 12.7497 15.3939C12.7464 15.3772 12.7418 15.3526 12.7366 15.325L12.7366 15.3248C12.7298 15.2884 12.7221 15.2468 12.7151 15.2118C12.7112 15.1749 12.7037 15.1385 12.6927 15.103C12.6909 15.0866 12.687 15.0706 12.681 15.0552C12.6779 15.0441 12.6791 15.0446 12.6801 15.0451C12.6806 15.0453 12.681 15.0455 12.681 15.0445L12.6495 14.9179V14.8991C12.6438 14.8747 12.6375 14.8509 12.6313 14.8274L12.6313 14.8273C12.6263 14.8087 12.6215 14.7904 12.617 14.772C12.6119 14.7503 12.6054 14.7289 12.5976 14.7079L12.5707 14.6169C12.5632 14.5926 12.5553 14.5683 12.5471 14.5432L12.5471 14.5431C12.5393 14.5189 12.5311 14.4939 12.5229 14.4674C12.495 14.3827 12.4633 14.298 12.4317 14.2134L12.4317 14.2133L12.4212 14.1852C12.3648 14.0357 12.3022 13.8969 12.2336 13.755C12.2244 13.7357 12.2143 13.7164 12.2036 13.6986C12.1958 13.6779 12.1865 13.6578 12.1756 13.6386L12.1471 13.5877C12.0378 13.3756 11.9148 13.1708 11.779 12.9745C11.7597 12.943 11.7388 12.913 11.718 12.8845C11.6748 12.822 11.6285 12.761 11.5812 12.701C11.5588 12.67 11.535 12.64 11.5111 12.61L11.511 12.61C11.5007 12.597 11.4946 12.5889 11.4897 12.5825C11.4833 12.5741 11.4792 12.5686 11.4709 12.5591C11.4609 12.5478 11.4521 12.5362 11.4434 12.5247L11.4307 12.5083C11.4083 12.4803 11.3844 12.4518 11.359 12.4249L11.329 12.3903L11.2817 12.3354C11.2775 12.3309 11.2734 12.3264 11.2693 12.3217C11.2651 12.317 11.2609 12.3122 11.2567 12.3074L11.2567 12.3073C11.2433 12.2919 11.23 12.2766 11.2161 12.2637C11.1729 12.2159 11.1282 12.1696 11.0834 12.1233L11.0163 12.0577C10.9421 11.983 10.8673 11.9083 10.7885 11.8427C11.1617 11.5486 11.5026 11.2157 11.8054 10.8496C11.8532 10.8928 11.901 10.9361 11.9473 10.9808C11.9511 10.9857 11.9555 10.9897 11.9596 10.9935C11.9632 10.9968 11.9666 10.9999 11.9692 11.0032C11.997 11.0303 12.0239 11.0572 12.05 11.084L12.0693 11.1018L12.1365 11.1705L12.2122 11.2513C12.2331 11.2722 12.2524 11.293 12.2717 11.3154C12.2795 11.3244 12.2921 11.3385 12.3066 11.3546L12.3067 11.3548L12.3068 11.3549C12.3283 11.3788 12.3537 11.4073 12.3734 11.4303L12.469 11.5427L12.4838 11.5605L12.5407 11.6291C12.5661 11.6586 12.5915 11.6886 12.6119 11.7186C12.6207 11.7274 12.6287 11.7369 12.6358 11.7471C12.652 11.7665 12.6676 11.787 12.6832 11.8077C12.695 11.8233 12.7069 11.839 12.7192 11.8544L12.7756 11.9306L12.831 12.0069L12.8666 12.0547L12.9012 12.1055C12.9135 12.1239 12.9263 12.1423 12.9391 12.1608C12.9553 12.1843 12.9717 12.208 12.9877 12.2322C13.0109 12.2675 13.0417 12.315 13.0704 12.3595L13.0705 12.3597L13.0893 12.3888L13.1402 12.4681V12.4818C13.1445 12.489 13.1489 12.4959 13.1534 12.5028C13.1601 12.5132 13.1669 12.5236 13.1732 12.5352C13.1781 12.5441 13.1839 12.5533 13.1897 12.5627L13.1897 12.5627C13.1965 12.5737 13.2033 12.5847 13.2088 12.5952L13.2434 12.6547L13.2553 12.6749C13.2666 12.6938 13.2783 12.7135 13.2892 12.7355L13.3014 12.7564C13.3189 12.7858 13.3341 12.8158 13.3497 12.8465L13.3497 12.8466L13.3497 12.8466C13.3595 12.8658 13.3694 12.8854 13.3802 12.9054C13.3994 12.9411 13.4105 12.9631 13.4218 12.9856L13.4382 13.0177C13.4575 13.0554 13.4758 13.0935 13.4936 13.1311L13.5054 13.1558L13.5054 13.1558C13.5196 13.1851 13.5337 13.2143 13.5444 13.2445C13.5775 13.3116 13.607 13.3788 13.637 13.4479C13.6418 13.4601 13.6468 13.4716 13.6518 13.4831L13.6518 13.4831C13.6579 13.4971 13.6639 13.5109 13.6695 13.5257L13.7102 13.6244L13.7473 13.72L13.7844 13.8186C13.79 13.8329 13.7952 13.8475 13.8005 13.8624L13.8005 13.8624C13.8066 13.8799 13.8129 13.8976 13.82 13.9152C13.8269 13.9353 13.8338 13.9552 13.8408 13.9751L13.8409 13.9753C13.8526 14.0087 13.8643 14.0422 13.8754 14.0769L13.8932 14.1364C13.8943 14.1428 13.8943 14.1493 13.8932 14.1557C13.9004 14.1753 13.9063 14.1954 13.911 14.2157C13.9151 14.2362 13.9216 14.2562 13.9304 14.2752L13.9334 14.2857C13.9402 14.3088 13.951 14.3456 13.9588 14.3739L13.9691 14.4097L13.9691 14.4098C13.9752 14.4309 13.9815 14.4525 13.9873 14.4755C13.9915 14.504 13.9985 14.5319 14.0082 14.5589C14.0392 14.6769 14.0661 14.7964 14.0915 14.9149C14.0946 14.9446 14.1001 14.974 14.1078 15.0028V15.0105C14.1088 15.0194 14.1088 15.0285 14.1078 15.0374C14.1104 15.0657 14.1159 15.0936 14.1241 15.1208C14.1236 15.1249 14.1236 15.129 14.1241 15.133C14.1228 15.1573 14.1259 15.1815 14.1332 15.2047V15.2225L14.1465 15.3089V15.3537C14.1455 15.375 14.1481 15.3963 14.1541 15.4167C14.1615 15.4552 14.1665 15.4941 14.1688 15.5332C14.1712 15.5532 14.1732 15.5672 14.1749 15.5798L14.1749 15.5798C14.1766 15.5915 14.178 15.6021 14.1795 15.615L14.1882 15.7106C14.1877 15.715 14.1877 15.7195 14.1882 15.7239C14.1869 15.7546 14.1895 15.7853 14.1958 15.8154C14.1994 15.8451 14.1994 15.8751 14.1958 15.9049C14.1963 15.9128 14.1963 15.9208 14.1958 15.9288V16.0228C14.1963 16.0328 14.1963 16.0428 14.1958 16.0528C14.1963 16.0608 14.1963 16.0688 14.1958 16.0767V16.2913C14.1917 16.3497 14.1905 16.4082 14.1922 16.4667V17.0698ZM8.96852 14.2675C9.49338 14.8294 9.79944 15.5608 9.83121 16.329L9.83222 16.328C9.87002 17.18 9.56795 18.0121 8.99242 18.6414C8.41688 19.2707 7.615 19.6457 6.76306 19.6839H6.6273C5.79006 19.7056 4.9774 19.3997 4.36215 18.8315C3.7469 18.2632 3.37758 17.4774 3.33274 16.6411C3.2879 15.8048 3.57108 14.9839 4.12205 14.3532C4.67301 13.7224 5.44831 13.3314 6.28307 13.2634C6.35184 13.2511 6.42172 13.2462 6.49154 13.2487H6.62629C6.74126 13.2487 6.85616 13.2547 6.97052 13.2665C7.73481 13.3505 8.44367 13.7056 8.96852 14.2675Z" fill="white"/>
</svg>
